<?xml version="1.0" encoding="utf-8"?>
<!-- Generator: Adobe Illustrator 27.6.1, SVG Export Plug-In . SVG Version: 6.00 Build 0)  -->
<svg version="1.1" id="Camada_1" xmlns="http://www.w3.org/2000/svg" xmlns:xlink="http://www.w3.org/1999/xlink" x="0px" y="0px"
	 viewBox="0 0 260.4 46.17" style="enable-background:new 0 0 260.4 46.17;" xml:space="preserve">
<style type="text/css">
	.st0{fill:#FFFFFF;}
</style>
<g>
	<g>
		<g>
			<g>
				<path class="st0" d="M40.22,39.2H45v0.86h-3.84v2.13h3.44v0.86h-3.44v2.2h3.96v0.86h-4.91V39.2z"/>
				<path class="st0" d="M50.96,40.18c-0.34-0.1-0.66-0.15-0.95-0.15c-0.4,0-0.72,0.08-0.96,0.23c-0.24,0.15-0.36,0.37-0.36,0.64
					c0,0.24,0.07,0.44,0.22,0.6c0.14,0.15,0.32,0.28,0.53,0.36c0.21,0.09,0.5,0.19,0.88,0.31c0.47,0.14,0.84,0.28,1.13,0.41
					c0.29,0.13,0.54,0.33,0.74,0.59c0.2,0.26,0.31,0.6,0.31,1.03c0,0.39-0.11,0.74-0.32,1.03c-0.21,0.3-0.51,0.52-0.9,0.68
					s-0.83,0.24-1.32,0.24c-0.51,0-1-0.1-1.48-0.3c-0.48-0.2-0.89-0.46-1.24-0.79l0.42-0.82c0.33,0.32,0.7,0.57,1.11,0.74
					s0.81,0.26,1.2,0.26c0.46,0,0.82-0.09,1.09-0.27c0.27-0.18,0.4-0.42,0.4-0.73c0-0.24-0.07-0.44-0.22-0.6
					c-0.14-0.16-0.33-0.28-0.55-0.37c-0.22-0.09-0.52-0.19-0.89-0.31c-0.46-0.14-0.83-0.27-1.12-0.4c-0.29-0.13-0.53-0.32-0.73-0.58
					c-0.2-0.26-0.3-0.59-0.3-1.01c0-0.37,0.1-0.69,0.31-0.97c0.2-0.28,0.49-0.5,0.86-0.65c0.37-0.15,0.79-0.23,1.28-0.23
					c0.41,0,0.82,0.06,1.22,0.18c0.4,0.12,0.75,0.28,1.06,0.49l-0.39,0.85C51.64,40.44,51.3,40.29,50.96,40.18z"/>
				<path class="st0" d="M54.39,39.2h5.39v0.87h-2.23v6.03h-0.95v-6.03h-2.22V39.2z"/>
				<path class="st0" d="M62.14,39.2h4.79v0.86h-3.84v2.13h3.44v0.86h-3.44v2.2h3.96v0.86h-4.91V39.2z"/>
				<path class="st0" d="M68.97,39.2h5.39v0.87h-2.23v6.03h-0.95v-6.03h-2.22V39.2z"/>
				<path class="st0" d="M76.72,39.2h0.95v6.9h-0.95V39.2z"/>
				<path class="st0" d="M85,40.21c-0.35-0.15-0.71-0.23-1.07-0.23c-0.49,0-0.93,0.12-1.34,0.35c-0.41,0.24-0.73,0.56-0.97,0.96
					c-0.24,0.4-0.35,0.85-0.35,1.34c0,0.48,0.12,0.92,0.35,1.33c0.24,0.41,0.56,0.73,0.97,0.97c0.41,0.24,0.85,0.35,1.34,0.35
					c0.36,0,0.72-0.07,1.06-0.22c0.35-0.15,0.66-0.35,0.93-0.61l0.57,0.62c-0.35,0.34-0.75,0.61-1.21,0.8
					c-0.46,0.19-0.93,0.29-1.4,0.29c-0.66,0-1.26-0.16-1.8-0.47c-0.55-0.31-0.98-0.74-1.29-1.28c-0.32-0.54-0.47-1.13-0.47-1.78
					c0-0.64,0.16-1.23,0.48-1.77c0.32-0.54,0.75-0.96,1.31-1.27c0.55-0.31,1.16-0.46,1.82-0.46c0.48,0,0.94,0.09,1.39,0.27
					c0.45,0.18,0.84,0.44,1.17,0.76l-0.56,0.68C85.65,40.58,85.35,40.37,85,40.21z"/>
				<path class="st0" d="M89.09,39.2h0.95v6.9h-0.95V39.2z"/>
				<path class="st0" d="M96.31,40.18c-0.34-0.1-0.66-0.15-0.95-0.15c-0.4,0-0.72,0.08-0.96,0.23c-0.24,0.15-0.36,0.37-0.36,0.64
					c0,0.24,0.07,0.44,0.22,0.6c0.14,0.15,0.32,0.28,0.53,0.36c0.21,0.09,0.5,0.19,0.88,0.31c0.47,0.14,0.84,0.28,1.13,0.41
					c0.29,0.13,0.54,0.33,0.74,0.59c0.2,0.26,0.31,0.6,0.31,1.03c0,0.39-0.11,0.74-0.32,1.03s-0.51,0.52-0.9,0.68
					c-0.38,0.16-0.83,0.24-1.32,0.24c-0.51,0-1-0.1-1.48-0.3c-0.48-0.2-0.89-0.46-1.24-0.79l0.42-0.82c0.33,0.32,0.7,0.57,1.11,0.74
					s0.81,0.26,1.2,0.26c0.46,0,0.82-0.09,1.09-0.27c0.27-0.18,0.4-0.42,0.4-0.73c0-0.24-0.07-0.44-0.22-0.6
					c-0.14-0.16-0.33-0.28-0.55-0.37c-0.22-0.09-0.52-0.19-0.89-0.31c-0.46-0.14-0.83-0.27-1.12-0.4c-0.29-0.13-0.53-0.32-0.73-0.58
					c-0.2-0.26-0.3-0.59-0.3-1.01c0-0.37,0.1-0.69,0.31-0.97c0.2-0.28,0.49-0.5,0.86-0.65c0.37-0.15,0.79-0.23,1.28-0.23
					c0.41,0,0.82,0.06,1.22,0.18c0.4,0.12,0.75,0.28,1.06,0.49l-0.39,0.85C96.99,40.44,96.66,40.29,96.31,40.18z"/>
				<path class="st0" d="M99.74,39.2h5.39v0.87h-2.23v6.03h-0.95v-6.03h-2.22V39.2z"/>
				<path class="st0" d="M111.96,46.1l-0.73-1.67h-3.64l-0.72,1.67h-1l3.06-6.9h0.98l3.05,6.9H111.96z M107.97,43.57h2.9l-1.46-3.35
					L107.97,43.57z"/>
				<path class="st0" d="M119.13,39.2h4.79v0.86h-3.84v2.13h3.44v0.86h-3.44v2.2h3.96v0.86h-4.91V39.2z"/>
				<path class="st0" d="M134.78,40.21c-0.35-0.15-0.71-0.23-1.07-0.23c-0.49,0-0.93,0.12-1.34,0.35c-0.41,0.24-0.73,0.56-0.97,0.96
					c-0.24,0.4-0.35,0.85-0.35,1.34c0,0.48,0.12,0.92,0.35,1.33c0.24,0.41,0.56,0.73,0.97,0.97c0.41,0.24,0.85,0.35,1.34,0.35
					c0.36,0,0.72-0.07,1.06-0.22c0.35-0.15,0.66-0.35,0.93-0.61l0.57,0.62c-0.35,0.34-0.75,0.61-1.21,0.8
					c-0.46,0.19-0.93,0.29-1.4,0.29c-0.66,0-1.26-0.16-1.8-0.47c-0.55-0.31-0.98-0.74-1.29-1.28c-0.32-0.54-0.47-1.13-0.47-1.78
					c0-0.64,0.16-1.23,0.48-1.77c0.32-0.54,0.75-0.96,1.31-1.27c0.55-0.31,1.16-0.46,1.82-0.46c0.48,0,0.94,0.09,1.39,0.27
					c0.45,0.18,0.84,0.44,1.17,0.76l-0.56,0.68C135.44,40.58,135.13,40.37,134.78,40.21z"/>
				<path class="st0" d="M143.56,39.61c0.55,0.31,0.99,0.73,1.31,1.27c0.32,0.53,0.48,1.12,0.48,1.77c0,0.64-0.16,1.24-0.48,1.78
					c-0.32,0.54-0.76,0.97-1.31,1.28c-0.56,0.31-1.16,0.47-1.83,0.47c-0.66,0-1.27-0.16-1.83-0.47c-0.55-0.31-0.99-0.74-1.31-1.28
					c-0.32-0.54-0.48-1.13-0.48-1.78c0-0.64,0.16-1.23,0.48-1.77c0.32-0.54,0.76-0.96,1.31-1.27c0.55-0.31,1.16-0.46,1.83-0.46
					C142.39,39.15,143,39.3,143.56,39.61z M140.4,40.35c-0.41,0.24-0.74,0.56-0.98,0.96c-0.24,0.4-0.36,0.85-0.36,1.33
					c0,0.49,0.12,0.93,0.36,1.34c0.24,0.41,0.57,0.73,0.98,0.97c0.41,0.24,0.86,0.36,1.34,0.36s0.92-0.12,1.32-0.36
					c0.4-0.24,0.73-0.56,0.97-0.97c0.24-0.41,0.36-0.85,0.36-1.34c0-0.49-0.12-0.93-0.36-1.33c-0.24-0.4-0.56-0.72-0.97-0.96
					c-0.4-0.24-0.85-0.35-1.32-0.35S140.81,40.11,140.4,40.35z"/>
				<path class="st0" d="M151.02,40.18c-0.34-0.1-0.66-0.15-0.95-0.15c-0.4,0-0.72,0.08-0.96,0.23c-0.24,0.15-0.36,0.37-0.36,0.64
					c0,0.24,0.07,0.44,0.22,0.6c0.14,0.15,0.32,0.28,0.53,0.36c0.21,0.09,0.5,0.19,0.88,0.31c0.47,0.14,0.84,0.28,1.13,0.41
					c0.29,0.13,0.54,0.33,0.74,0.59c0.2,0.26,0.31,0.6,0.31,1.03c0,0.39-0.11,0.74-0.32,1.03s-0.51,0.52-0.9,0.68
					c-0.38,0.16-0.83,0.24-1.32,0.24c-0.51,0-1-0.1-1.48-0.3c-0.48-0.2-0.89-0.46-1.24-0.79l0.42-0.82c0.33,0.32,0.7,0.57,1.11,0.74
					s0.81,0.26,1.2,0.26c0.46,0,0.82-0.09,1.09-0.27c0.27-0.18,0.4-0.42,0.4-0.73c0-0.24-0.07-0.44-0.22-0.6
					c-0.14-0.16-0.33-0.28-0.55-0.37c-0.22-0.09-0.52-0.19-0.89-0.31c-0.46-0.14-0.83-0.27-1.12-0.4c-0.29-0.13-0.53-0.32-0.73-0.58
					c-0.2-0.26-0.3-0.59-0.3-1.01c0-0.37,0.1-0.69,0.31-0.97c0.2-0.28,0.49-0.5,0.86-0.65c0.37-0.15,0.79-0.23,1.28-0.23
					c0.41,0,0.82,0.06,1.22,0.18c0.4,0.12,0.75,0.28,1.06,0.49l-0.39,0.85C151.7,40.44,151.37,40.29,151.02,40.18z"/>
				<path class="st0" d="M155.34,39.2h1.12l2.52,4.85l2.5-4.85h1.13v6.9h-0.89l-0.01-5.51l-2.45,4.78h-0.58l-2.47-4.78v5.51h-0.88
					V39.2z"/>
				<path class="st0" d="M165.87,39.2h4.79v0.86h-3.84v2.13h3.44v0.86h-3.44v2.2h3.96v0.86h-4.91V39.2z"/>
				<path class="st0" d="M172.7,39.2h5.39v0.87h-2.23v6.03h-0.95v-6.03h-2.22V39.2z"/>
				<path class="st0" d="M184.86,39.61c0.55,0.31,0.99,0.73,1.31,1.27c0.32,0.53,0.48,1.12,0.48,1.77c0,0.64-0.16,1.24-0.48,1.78
					c-0.32,0.54-0.76,0.97-1.31,1.28c-0.56,0.31-1.16,0.47-1.83,0.47c-0.66,0-1.27-0.16-1.83-0.47c-0.55-0.31-0.99-0.74-1.31-1.28
					c-0.32-0.54-0.48-1.13-0.48-1.78c0-0.64,0.16-1.23,0.48-1.77c0.32-0.54,0.76-0.96,1.31-1.27c0.55-0.31,1.16-0.46,1.83-0.46
					C183.7,39.15,184.3,39.3,184.86,39.61z M181.71,40.35c-0.41,0.24-0.74,0.56-0.98,0.96c-0.24,0.4-0.36,0.85-0.36,1.33
					c0,0.49,0.12,0.93,0.36,1.34c0.24,0.41,0.57,0.73,0.98,0.97c0.41,0.24,0.86,0.36,1.34,0.36s0.92-0.12,1.32-0.36
					c0.4-0.24,0.73-0.56,0.97-0.97c0.24-0.41,0.36-0.85,0.36-1.34c0-0.49-0.12-0.93-0.36-1.33c-0.24-0.4-0.56-0.72-0.97-0.96
					c-0.4-0.24-0.85-0.35-1.32-0.35S182.12,40.11,181.71,40.35z M183.57,37.21l0.95,0.41l-1.22,0.97l-0.78-0.1L183.57,37.21z"/>
				<path class="st0" d="M189.3,39.2h0.95v6.04h3.01v0.86h-3.96V39.2z"/>
				<path class="st0" d="M200.58,39.61c0.55,0.31,0.99,0.73,1.31,1.27c0.32,0.53,0.48,1.12,0.48,1.77c0,0.64-0.16,1.24-0.48,1.78
					c-0.32,0.54-0.76,0.97-1.31,1.28c-0.56,0.31-1.16,0.47-1.83,0.47c-0.66,0-1.27-0.16-1.83-0.47c-0.55-0.31-0.99-0.74-1.31-1.28
					c-0.32-0.54-0.48-1.13-0.48-1.78c0-0.64,0.16-1.23,0.48-1.77c0.32-0.54,0.76-0.96,1.31-1.27c0.55-0.31,1.16-0.46,1.83-0.46
					C199.42,39.15,200.03,39.3,200.58,39.61z M197.43,40.35c-0.41,0.24-0.74,0.56-0.98,0.96c-0.24,0.4-0.36,0.85-0.36,1.33
					c0,0.49,0.12,0.93,0.36,1.34c0.24,0.41,0.57,0.73,0.98,0.97c0.41,0.24,0.86,0.36,1.34,0.36s0.92-0.12,1.32-0.36
					c0.4-0.24,0.73-0.56,0.97-0.97c0.24-0.41,0.36-0.85,0.36-1.34c0-0.49-0.12-0.93-0.36-1.33c-0.24-0.4-0.56-0.72-0.97-0.96
					c-0.4-0.24-0.85-0.35-1.32-0.35S197.84,40.11,197.43,40.35z"/>
				<path class="st0" d="M209.57,42.73h0.84v2.53c-0.35,0.28-0.76,0.5-1.22,0.66c-0.47,0.16-0.93,0.25-1.39,0.25
					c-0.66,0-1.27-0.16-1.82-0.47c-0.55-0.31-0.99-0.74-1.31-1.28c-0.32-0.54-0.48-1.13-0.48-1.78c0-0.64,0.16-1.23,0.48-1.77
					c0.32-0.54,0.76-0.96,1.32-1.27c0.56-0.31,1.18-0.46,1.85-0.46c0.48,0,0.95,0.09,1.4,0.26c0.46,0.17,0.85,0.4,1.19,0.7
					l-0.54,0.69c-0.28-0.26-0.59-0.45-0.95-0.6c-0.36-0.14-0.72-0.21-1.1-0.21c-0.49,0-0.95,0.12-1.36,0.35
					c-0.41,0.24-0.74,0.56-0.98,0.97c-0.24,0.41-0.36,0.85-0.36,1.34c0,0.49,0.12,0.93,0.36,1.34c0.24,0.41,0.57,0.74,0.99,0.98
					c0.41,0.24,0.87,0.36,1.36,0.36c0.29,0,0.58-0.05,0.88-0.14c0.3-0.1,0.58-0.23,0.83-0.4V42.73z"/>
				<path class="st0" d="M218.6,46.1l-0.73-1.67h-3.64l-0.72,1.67h-1l3.06-6.9h0.98l3.05,6.9H218.6z M214.61,43.57h2.9l-1.46-3.35
					L214.61,43.57z"/>
			</g>
			<g>
				<path class="st0" d="M16.9,2c0,0-0.95,0.2-1.41,0.45c-0.57,0.3-1.13,0.14-1.88,0.14h-1.08c-0.6,0-1.05,0.1-1.38,0.31
					c-0.32,0.2-0.54,0.53-0.66,0.96c-0.12,0.44-0.17,1.01-0.17,1.72v14.3c0,0.48-0.17,0.88-0.51,1.22c-0.34,0.34-0.75,0.5-1.22,0.5
					H6.26v-0.14c0.6-0.14,1.04-0.34,1.33-0.61c0.29-0.27,0.48-0.63,0.57-1.08c0.09-0.46,0.13-1.04,0.13-1.76V5.58
					c0-1.06-0.13-1.83-0.4-2.29c-0.27-0.47-0.81-0.7-1.64-0.7L4.93,2.62C4.16,2.68,3.87,2.68,2.92,2.7C2.47,2.72,2.55,2,2.55,2H16.9
					z"/>
				<path class="st0" d="M31.04,6.49V6.4h4.89v0.08l-0.1,0.01c-0.44,0.1-0.76,0.25-0.98,0.45c-0.21,0.2-0.35,0.46-0.41,0.79
					c-0.06,0.33-0.08,0.76-0.08,1.29v9.95c0,0.53,0.03,0.96,0.08,1.29c0.06,0.33,0.19,0.59,0.41,0.79s0.54,0.34,0.98,0.45l0.1,0.01
					v0.08h-4.89v-0.08l0.08-0.01c0.44-0.1,0.76-0.25,0.98-0.45c0.21-0.2,0.35-0.46,0.41-0.79c0.06-0.33,0.09-0.76,0.09-1.29v-6.16
					h-7.49v6.16c0,0.53,0.03,0.96,0.08,1.29c0.06,0.33,0.19,0.59,0.41,0.79c0.21,0.2,0.55,0.34,0.99,0.45l0.08,0.01v0.08h-4.89
					v-0.08l0.08-0.01c0.45-0.1,0.78-0.25,0.98-0.45c0.21-0.2,0.34-0.46,0.41-0.79c0.06-0.33,0.09-0.76,0.09-1.29V9.03
					c0-0.53-0.03-0.96-0.09-1.29c-0.06-0.33-0.2-0.59-0.41-0.79c-0.21-0.2-0.54-0.34-0.98-0.45l-0.08-0.01V6.4h4.89v0.08L26.6,6.5
					c-0.45,0.1-0.78,0.25-0.99,0.45c-0.21,0.2-0.35,0.46-0.41,0.79c-0.06,0.33-0.08,0.76-0.08,1.29v3.16h7.49V9.03
					c0-0.53-0.03-0.96-0.09-1.29c-0.06-0.33-0.2-0.59-0.41-0.79c-0.21-0.2-0.54-0.34-0.98-0.45L31.04,6.49z"/>
				<path class="st0" d="M55.79,18.71c0.27,0.76,0.56,1.38,0.88,1.85c0.32,0.47,0.77,0.78,1.36,0.94l0.08,0.01v0.08h-1.69
					c-0.43,0-0.82-0.12-1.17-0.37c-0.35-0.25-0.61-0.57-0.78-0.97l-1.42-3.74l-6.34,0.04l-1.63,4.3c-0.24,0.49-0.6,0.74-1.08,0.74
					H42.8v-0.08l0.08-0.01c0.57-0.15,1-0.43,1.29-0.84c0.29-0.41,0.57-0.97,0.82-1.69l4.07-10.88c0.06-0.2,0.1-0.38,0.1-0.53
					c0-0.23-0.08-0.45-0.24-0.64c-0.16-0.2-0.44-0.34-0.82-0.42l-0.1-0.01V6.4h1.49c0.48,0,0.91,0.14,1.31,0.41
					c0.4,0.28,0.69,0.64,0.87,1.1L55.79,18.71z M52.81,15.92l-2.99-7.84l-2.91,7.85L52.81,15.92z"/>
				<path class="st0" d="M68.29,18.75c0,0.53,0.03,0.98,0.09,1.35c0.06,0.37,0.2,0.67,0.41,0.9c0.21,0.23,0.54,0.4,0.98,0.5
					l0.08,0.01v0.08h-4.89v-0.08l0.08-0.01c0.45-0.1,0.78-0.27,0.98-0.5c0.21-0.23,0.34-0.53,0.41-0.9
					c0.06-0.37,0.09-0.82,0.09-1.35v-9.5c0-0.53-0.03-0.98-0.09-1.35c-0.06-0.37-0.2-0.67-0.41-0.9c-0.21-0.23-0.54-0.4-0.98-0.5
					l-0.08-0.01V6.4h1.72c0.44,0,0.81,0.16,1.13,0.47c0.32,0.31,0.48,0.69,0.48,1.14V18.75z"/>
				<path class="st0" d="M89.65,18.71c0.27,0.76,0.56,1.38,0.88,1.85c0.32,0.47,0.77,0.78,1.36,0.94l0.08,0.01v0.08h-1.69
					c-0.43,0-0.82-0.12-1.17-0.37c-0.35-0.25-0.61-0.57-0.78-0.97l-1.42-3.74l-6.34,0.04l-1.63,4.3c-0.24,0.49-0.6,0.74-1.08,0.74
					h-1.19v-0.08l0.08-0.01c0.57-0.15,1-0.43,1.29-0.84c0.29-0.41,0.57-0.97,0.82-1.69l4.07-10.88c0.06-0.2,0.1-0.38,0.1-0.53
					c0-0.23-0.08-0.45-0.24-0.64c-0.16-0.2-0.44-0.34-0.82-0.42l-0.1-0.01V6.4h1.49c0.48,0,0.91,0.14,1.31,0.41
					c0.4,0.28,0.69,0.64,0.87,1.1L89.65,18.71z M86.68,15.92l-2.99-7.84l-2.91,7.85L86.68,15.92z"/>
				<path class="st0" d="M109.5,6.49V6.4h3.83v0.08l-0.1,0.01c-0.57,0.11-0.95,0.32-1.16,0.64c-0.21,0.31-0.31,0.86-0.31,1.64V21.6
					h-0.64l-0.03-0.04l-10.02-13.4V19c0,0.78,0.1,1.36,0.31,1.75c0.2,0.38,0.6,0.63,1.17,0.75l0.08,0.01v0.08h-3.81v-0.08l0.08-0.01
					c0.56-0.12,0.95-0.38,1.16-0.78c0.21-0.4,0.32-0.97,0.32-1.72V8.78c0-0.75-0.11-1.28-0.32-1.61c-0.21-0.33-0.6-0.55-1.16-0.66
					l-0.08-0.01V6.4h2.04c0.69,0,1.28,0.29,1.76,0.88l8.44,11.32V8.78c0-0.75-0.11-1.28-0.32-1.61c-0.21-0.33-0.6-0.55-1.15-0.66
					L109.5,6.49z"/>
				<path class="st0" d="M132.85,18.44h0.13l-1.01,3.16h-11.65v-0.08l0.08-0.01c0.45-0.1,0.78-0.27,0.98-0.5
					c0.21-0.23,0.34-0.53,0.41-0.9c0.06-0.37,0.09-0.82,0.09-1.35v-9.5c0-0.53-0.03-0.98-0.09-1.35c-0.06-0.37-0.2-0.67-0.41-0.9
					c-0.21-0.23-0.54-0.4-0.98-0.5l-0.08-0.01V6.4h11.01l0.78,3.13h-0.13l-0.03-0.06c-0.21-0.42-0.46-0.81-0.77-1.17
					c-0.31-0.36-0.69-0.65-1.16-0.89c-0.47-0.23-1.04-0.35-1.72-0.35h-3.09c-0.61,0-1.03,0.15-1.25,0.45
					c-0.22,0.3-0.33,0.88-0.33,1.73v4.46h1.09c0.29,0,0.62-0.04,1-0.12c0.38-0.08,0.73-0.28,1.06-0.61
					c0.33-0.33,0.58-0.84,0.75-1.54h0.14v5.11h-0.14c-0.17-0.7-0.42-1.21-0.75-1.54c-0.33-0.33-0.68-0.54-1.06-0.64
					c-0.38-0.09-0.71-0.14-1-0.14h-1.09v4.51c0,0.85,0.11,1.42,0.33,1.73c0.22,0.3,0.64,0.45,1.25,0.45h3.73
					c0.71,0,1.32-0.12,1.82-0.37c0.51-0.25,0.93-0.55,1.26-0.92c0.33-0.37,0.59-0.74,0.77-1.12L132.85,18.44z"/>
				<path class="st0" d="M154.87,2.14V2h14.3c0.08,0,0.16-0.04,0.21-0.11l0.35-0.52l0.33,0.2c-0.27-0.56-0.38,1.43-0.75,0.95
					c-0.37-0.48-0.4,0.09-1.12,0.12c-0.84,0.04-1.82-0.06-2.73-0.06h-4.32c-0.6,0-1.05,0.1-1.38,0.31c-0.32,0.2-0.54,0.53-0.66,0.96
					c-0.12,0.44-0.17,1.01-0.17,1.72v1.31v4.34v0.61v6.92v1.01c0,0.59-0.23,1.18-0.71,1.53c-0.28,0.2-0.59,0.3-0.95,0.3h-2.4v-0.14
					c0.6-0.14,1.04-0.34,1.33-0.61c0.29-0.27,0.48-0.63,0.57-1.08c0.09-0.46,0.13-1.04,0.13-1.76V5.58c0-0.71-0.04-1.29-0.13-1.75
					c-0.09-0.46-0.28-0.82-0.57-1.09C155.91,2.47,155.46,2.27,154.87,2.14z M163.89,9.61c0.14-0.18,0.36-0.16,0.47,0.03
					c0.53,0.9,0.58,3,0.01,3.82c-0.12,0.18-0.33,0.19-0.46,0.02c-0.33-0.42-0.46-0.97-0.97-1.29c-0.32-0.2-0.64-0.36-0.98-0.47
					c-0.19-0.06-0.2-0.32-0.01-0.39c0.34-0.11,0.67-0.27,0.99-0.47C163.43,10.56,163.57,10.03,163.89,9.61z"/>
				<path class="st0" d="M184.38,18.71c0.27,0.76,0.56,1.38,0.88,1.85c0.32,0.47,0.77,0.78,1.36,0.94l0.08,0.01v0.08h-1.69
					c-0.43,0-0.82-0.12-1.17-0.37c-0.35-0.25-0.61-0.57-0.78-0.97l-1.42-3.74l-6.34,0.04l-1.63,4.3c-0.24,0.49-0.6,0.74-1.08,0.74
					h-1.19v-0.08l0.08-0.01c0.57-0.15,1-0.43,1.29-0.84s0.57-0.97,0.82-1.69l4.07-10.88c0.06-0.2,0.1-0.38,0.1-0.53
					c0-0.23-0.08-0.45-0.24-0.64c-0.16-0.2-0.44-0.34-0.82-0.42l-0.1-0.01V6.4h1.49c0.48,0,0.91,0.14,1.31,0.41
					c0.4,0.28,0.69,0.64,0.87,1.1L184.38,18.71z M181.4,15.92l-2.99-7.84l-2.91,7.85L181.4,15.92z"/>
				<path class="st0" d="M205.05,19c0.65,0.82,1.19,1.4,1.61,1.75c0.42,0.35,0.86,0.55,1.31,0.61l0.1,0.01v0.2h-0.11
					c-0.38,0-0.72,0-1.01,0.01c-0.22,0.01-0.42,0.01-0.6,0.01c-0.62,0-1.1-0.1-1.42-0.29c-0.33-0.2-0.75-0.64-1.28-1.33l-4.51-5.62
					h-2.25v5.98c0,0.34-0.12,0.64-0.36,0.87c-0.24,0.24-0.53,0.36-0.87,0.36h-2.09v-0.08l0.08-0.01c0.45-0.1,0.78-0.25,0.98-0.44
					c0.21-0.19,0.34-0.45,0.41-0.79c0.06-0.34,0.09-0.77,0.09-1.3V9.01c0-0.53-0.03-0.96-0.09-1.3c-0.06-0.34-0.2-0.6-0.41-0.79
					c-0.21-0.19-0.54-0.34-0.98-0.44l-0.08-0.03V6.37h6.27c1.83,0,3.24,0.34,4.21,1.03c0.97,0.69,1.46,1.68,1.46,2.98
					c0,1.09-0.36,1.97-1.09,2.63c-0.73,0.67-1.78,1.09-3.16,1.26L205.05,19z M196.88,9.17v4.61h2.95c1.31,0,2.27-0.28,2.88-0.84
					c0.61-0.56,0.91-1.45,0.91-2.67c0-1.15-0.3-2-0.91-2.54c-0.61-0.54-1.56-0.81-2.88-0.81h-1.37c-0.61,0-1.03,0.16-1.25,0.48
					C196.99,7.71,196.88,8.3,196.88,9.17z"/>
				<path class="st0" d="M218.33,18.75c0,0.53,0.03,0.98,0.09,1.35c0.06,0.37,0.2,0.67,0.41,0.9c0.21,0.23,0.54,0.4,0.98,0.5
					l0.08,0.01v0.08H215v-0.08l0.08-0.01c0.45-0.1,0.78-0.27,0.98-0.5c0.21-0.23,0.34-0.53,0.41-0.9c0.06-0.37,0.09-0.82,0.09-1.35
					v-9.5c0-0.53-0.03-0.98-0.09-1.35c-0.06-0.37-0.2-0.67-0.41-0.9c-0.21-0.23-0.54-0.4-0.98-0.5L215,6.49V6.4h1.72
					c0.44,0,0.81,0.16,1.13,0.47c0.32,0.31,0.48,0.69,0.48,1.14V18.75z"/>
				<path class="st0" d="M239.69,18.71c0.27,0.76,0.56,1.38,0.88,1.85c0.32,0.47,0.77,0.78,1.36,0.94l0.08,0.01v0.08h-1.69
					c-0.43,0-0.82-0.12-1.17-0.37c-0.35-0.25-0.61-0.57-0.78-0.97l-1.42-3.74l-6.34,0.04l-1.63,4.3c-0.24,0.49-0.6,0.74-1.08,0.74
					h-1.19v-0.08l0.08-0.01c0.57-0.15,1-0.43,1.29-0.84c0.29-0.41,0.57-0.97,0.82-1.69l4.07-10.88c0.06-0.2,0.1-0.38,0.1-0.53
					c0-0.23-0.08-0.45-0.24-0.64c-0.16-0.2-0.44-0.34-0.82-0.42l-0.1-0.01V6.4h1.49c0.48,0,0.91,0.14,1.31,0.41
					c0.4,0.28,0.69,0.64,0.87,1.1L239.69,18.71z M236.72,15.92l-2.99-7.84l-2.91,7.85L236.72,15.92z"/>
				<path class="st0" d="M260.39,17.44c0.07,1.06-0.21,1.94-0.82,2.64c-0.61,0.63-1.34,1.06-2.17,1.29
					c-0.83,0.23-1.55,0.35-2.14,0.37c-0.09,0-0.18,0-0.27,0c-0.53,0-1.05-0.07-1.56-0.2c-0.51-0.13-0.96-0.27-1.36-0.43
					c-0.4-0.16-0.71-0.29-0.92-0.41c-0.18-0.09-0.33-0.18-0.46-0.27c-0.15-0.09-0.28-0.16-0.38-0.2c-0.11-0.04-0.21-0.04-0.31-0.01
					c-0.28,0.13-0.48,0.34-0.59,0.62c-0.12,0.28-0.17,0.51-0.17,0.68v0.1l-0.15,0.01v-0.11c0.02-1.61,0.03-3.22,0.04-4.83l0.01-0.17
					l0.11,0.03l0.06,0.14c0.17,0.55,0.4,1.09,0.69,1.61c0.29,0.52,0.66,0.97,1.1,1.36c1,0.85,2.39,1.32,4.18,1.41
					c0.68,0.04,1.31-0.05,1.9-0.27c0.68-0.23,1.19-0.51,1.54-0.82c0.35-0.31,0.56-0.81,0.64-1.49c0-0.05,0-0.12,0-0.22
					c0-0.1,0-0.2-0.01-0.31c0-0.1-0.01-0.17-0.02-0.21c-0.31-1.05-0.91-1.82-1.81-2.31c-0.9-0.49-1.88-0.88-2.95-1.18
					c-0.79-0.24-1.55-0.52-2.28-0.83c-0.73-0.31-1.33-0.75-1.82-1.3c-0.49-0.55-0.78-1.3-0.87-2.23c-0.05-0.98,0.18-1.73,0.68-2.25
					c0.5-0.52,1.07-0.88,1.7-1.09c0.63-0.2,1.13-0.32,1.48-0.35c0.85-0.09,1.67-0.01,2.46,0.25c0.8,0.28,1.42,0.55,1.86,0.82
					c0.13,0.07,0.25,0.15,0.36,0.22c0.15,0.1,0.29,0.19,0.42,0.25c0.13,0.07,0.25,0.08,0.35,0.06c0.25-0.09,0.44-0.26,0.58-0.51
					c0.13-0.25,0.2-0.44,0.2-0.58v-0.1l0.15-0.01l-0.08,1.97c-0.04,0.8-0.07,1.6-0.11,2.4v0.13l-0.14-0.06l-0.01-0.06
					c-0.33-1.15-0.93-2.1-1.81-2.84c-0.88-0.74-1.89-1.18-3.04-1.34c-1.32-0.14-2.37,0.13-3.13,0.8c-0.44,0.43-0.63,0.97-0.59,1.63
					c0.12,0.98,0.58,1.69,1.37,2.14c0.79,0.45,1.72,0.82,2.78,1.1c0.82,0.23,1.62,0.52,2.41,0.87c0.79,0.34,1.45,0.83,1.99,1.47
					C260,15.47,260.31,16.34,260.39,17.44z"/>
				<path class="st0" d="M166.84,2.63c0,0,1.38,0.08,2.2,0.12c0.53,0.03,1.15-0.24,1.42-0.55c0.24-0.29,0.35-0.49,0.3-0.95
					c-0.03-0.25-0.07-0.45-0.35-0.8c-0.2-0.28-0.7-0.45-0.78-0.44c0,0.01-0.01,0.06-0.01,0.1c-0.01,0.36-0.17,1.67-2.5,1.9
					L166.84,2.63z"/>
				<path class="st0" d="M14.61,2.62c0,0,1.38,0.12,2.2,0.21c0.53,0.06,1.16-0.18,1.44-0.48c0.26-0.27,0.38-0.47,0.35-0.94
					C18.6,1.18,18.56,0.97,18.3,0.6c-0.19-0.29-0.68-0.48-0.75-0.48c-0.01,0.01-0.01,0.06-0.01,0.1C17.51,0.58,17.27,1.9,14.93,2
					L14.61,2.62z"/>
				<path class="st0" d="M3.92,2.03c0,0-1.39-0.02-2.21-0.06C1.17,1.95,0.56,2.23,0.3,2.55c-0.24,0.29-0.34,0.5-0.28,0.96
					c0.03,0.25,0.08,0.45,0.37,0.8c0.21,0.28,0.71,0.43,0.78,0.43c0-0.01,0-0.06,0-0.11c0-0.36,0.15-1.69,2.47-1.96L3.92,2.03z"/>
				<rect x="158.79" y="11.3" class="st0" width="3.7" height="0.46"/>
			</g>
		</g>
	</g>
</g>
</svg>
